<?xml version="1.0" encoding="utf-8"?>
<!-- Generator: Adobe Illustrator 27.1.1, SVG Export Plug-In . SVG Version: 6.00 Build 0)  -->
<svg version="1.1" id="레이어_1" xmlns="http://www.w3.org/2000/svg" xmlns:xlink="http://www.w3.org/1999/xlink" x="0px"
	 y="0px" viewBox="0 0 1274 375" style="enable-background:new 0 0 1274 375;" xml:space="preserve">
<style type="text/css">
	.st0{fill:#1D1E1D;}
</style>
<path class="st0" d="M129.8,133.8c9.2,4.7,16.4,11.5,21.4,20.3c5,8.8,7.6,19.1,7.6,30.8c0,11.7-2.5,21.9-7.6,30.6
	c-5,8.6-12.2,15.2-21.4,19.9c-9.2,4.6-20,6.9-32.3,6.9H59.8V126.8h37.7C109.8,126.8,120.6,129.1,129.8,133.8z M128.6,215.8
	c7.2-7.3,10.8-17.6,10.8-30.9c0-13.4-3.6-23.9-10.8-31.4c-7.2-7.5-17.6-11.3-31.1-11.3H78.7v84.6h18.8
	C111,226.8,121.3,223.1,128.6,215.8z"/>
<path class="st0" d="M276.1,142.1v33.9H316v15.4h-39.9v35.4h44.9v15.4h-63.8V126.6h63.8v15.5H276.1z"/>
<path class="st0" d="M442.2,142.1v33.9h39.9v15.4h-39.9v35.4h44.9v15.4h-63.8V126.6h63.8v15.5H442.2z"/>
<path class="st0" d="M666,177.8c-2.8,5.2-7.2,9.4-13.3,12.7c-6.1,3.3-13.9,4.9-23.4,4.9h-20.9v46.9h-18.9V126.8h39.9
	c8.9,0,16.4,1.5,22.5,4.6c6.2,3,10.8,7.2,13.8,12.4s4.5,11,4.5,17.4C670.2,167,668.8,172.6,666,177.8z M645.4,175
	c3.5-3.3,5.3-7.9,5.3-13.9c0-12.6-7.1-18.9-21.4-18.9h-20.9v37.7h20.9C636.5,179.9,641.9,178.3,645.4,175z"/>
<path class="st0" d="M831.8,242.2l-44.7-51.7v51.7h-18.9V126.8h18.9v52.7l44.9-52.7h23.8l-50.2,57.8l51,57.7H831.8z"/>
<path class="st0" d="M1038.3,126.8l-38.2,73.6v41.9h-18.9v-41.9l-38.4-73.6h21.1l26.7,56.7l26.8-56.7
	C1017.4,126.8,1038.3,126.8,1038.3,126.8z"/>
<path class="st0" d="M1151.8,126.8v73.6c0,8.8,2.3,15.3,6.9,19.8c4.6,4.4,11,6.6,19.2,6.6c8.3,0,14.8-2.2,19.4-6.6
	c4.6-4.4,6.9-11,6.9-19.8v-73.6h18.9V200c0,9.4-2.1,17.4-6.2,23.9c-4.1,6.5-9.6,11.4-16.5,14.6c-6.9,3.2-14.4,4.8-22.8,4.8
	s-15.9-1.6-22.7-4.8c-6.8-3.2-12.2-8.1-16.2-14.6c-4-6.5-6-14.5-6-23.9v-73.3H1151.8L1151.8,126.8z"/>
</svg>
