<svg xmlns="http://www.w3.org/2000/svg" width="530" height="530" fill="none" viewBox="0 0 530 530">
  <path stroke="#000" d="M0 0h530v530H0z"/>
  <path fill="#111" d="M93.75 53.75c-22.091 0-40 17.909-40 40v161.348h57.764V53.75H93.75Zm105.234 0h57.764v201.348h-57.764V53.75Zm-72.617 0h57.764v201.348h-57.764V53.75Zm204.649 201.348h-57.764V141.221h57.764v113.877Zm0-127.08h-57.764V53.75h57.764v74.268Zm145.234 127.08h-57.764V141.221h57.764v113.877ZM436.29 53.75c22.055.021 39.932 17.893 39.96 39.948v34.32h-57.764V53.75h17.804Zm-92.071 0h57.763v201.348h-57.763V53.75ZM53.75 274.902V436.25c0 22.078 17.887 39.979 39.96 40h17.804V274.902H53.75Zm145.234 0h57.764V476.25h-57.764V274.902Zm-72.617 0h57.764v113.877h-57.764V274.902Zm0 127.08h57.764v74.268h-57.764v-74.268Zm146.885-127.08h57.764v113.877h-57.764V274.902Zm0 127.08h57.764v74.268h-57.764v-74.268Zm70.967-127.08h57.763v113.877h-57.763V274.902Zm0 127.08h57.763v74.268h-57.763v-74.268Zm74.267-127.08h57.764v113.877h-57.764V274.902Zm0 127.08h57.764v74.268h-57.764v-74.268Z"/>
</svg>
