<svg xmlns="http://www.w3.org/2000/svg" viewBox="0 0 1274 374.98"><defs><style>.eebcb37b-4c40-4ab2-a88e-7759d11145d5{fill:#fff;}</style></defs><g id="aaced70c-877c-4ab7-8e02-7ddcec9f1b5f" data-name="레이어 2"><g id="e48470c9-6fb2-4916-98bc-8e0ed57c931d" data-name="레이어 1"><path class="eebcb37b-4c40-4ab2-a88e-7759d11145d5" d="M782.82,272.8l-51.16.72L729.3,1.31C727.35.2,751.43,1.35,773.68,0c3.44,13.74,3.1,25.77,4.56,81.44,1.1,41.46,1.65,77.18,2.43,106.74l42.85-50.69L846.6,109.6s-25-17-22.35-17.08l74.87-2c3.07-.08-39.82,19.87-39.82,19.87l-28.47,27.65c9.31,17.81,31.86,57.17,31.86,57.17s43.44,73.59,41.52,73.64L852,270.44c-6-7.53-21.59-32.09-32.87-52.16-6.84-11.72-14.51-25.74-22.63-42L780.41,192.8C781.1,218.9,782.82,272.8,782.82,272.8Z"/><path class="eebcb37b-4c40-4ab2-a88e-7759d11145d5" d="M995.53,276.33c-10.87-18.92-30.7-57.2-45.36-88.32-16.68-35.29-46-97.95-46-97.95l50.9-1.3s26.81,50,36.63,72.8c9.38,20.89,20.81,46.32,25.78,60L1054,103.83l-23-14.38c-2.34-1.09-2-2.63.31-2.69l54.9-1.45c2.3-.06,2.33,1.09.07,2.69l-21.08,16.31c-3.59,9.69-73.66,193.64-78,204.13-13.34,33.39-36.6,69.35-68.95,66.36-6.6-2.9-11.27-19.68-12-30.8.32-2.32,52.08-6.37,52.08-6.37,8-3.67,12.77-11.09,20.46-25.51C983.92,302.38,993,283.7,995.53,276.33Z"/><path class="eebcb37b-4c40-4ab2-a88e-7759d11145d5" d="M1225.28,266.24c-16.06-2.14-24.48-13.22-27.33-29.47a8.51,8.51,0,0,0-.27-3.08c-11.08,8.42-38,30.08-60.28,29.24-33-1.24-48.58-16.42-49.44-65.27-.69-22.31,3.07-71.37,5.46-93.95l1.36-18.87s35.21.4,47.52.09c1.91,10.45-.72,25.59-1.82,44.76-1.2,21.86-2.08,34.9-2.5,56.4-1,37.24,3.91,49.34,25.4,50.15,16.5.62,25.84-2.49,34.42-5.62-.56-15.78.51-34.19,1.32-55.68,1.38-26.47,3.52-52.91,4.84-67.46l1-22.8s39,.09,46-.42c1.83,12.75.7,42.69-.36,71.09-1.53,40.68-3.59,64.81-5,81.29l2.9,4.72s26.63,7.15,25.45,7.87C1264.86,256.19,1244.86,267,1225.28,266.24Z"/><path class="eebcb37b-4c40-4ab2-a88e-7759d11145d5" d="M82,20.88c72.63,0,126.06,33.12,126.06,120.8,0,91.45-57.57,129.46-120.79,129.46h-84C1.44,271.14,0,191,0,141.68,0,91.26,2,23.89,2,23.89.51,22.77,82,20.88,82,20.88Zm67.73,122.31c0-49.68-12.41-96.72-30.85-110.64-7.91-3.39-18.07-6-32.74-7.53-12.42-1.13-24.84-1.13-32.74-1.5V264l3.38,4.14A202.88,202.88,0,0,0,82,267C127.2,262.1,149.77,222.59,149.77,143.19Z"/><path class="eebcb37b-4c40-4ab2-a88e-7759d11145d5" d="M302.06,91.63c46.66,0,67,34.62,65.1,78.28a11.91,11.91,0,0,1-4.14,4.51l-95.58-1.88c1.5,52.31,12.41,76,50.42,76,19.19,0,34.25-3.77,46.29-12.42,1.5-.75,3.76.38,1.88,3.39-14.68,21.07-39.14,36.12-63.22,36.12-51.56,0-85.42-25.59-85.42-90.31C217.39,121.36,258.4,91.63,302.06,91.63Zm19.57,73.76c.75-5.64.75-14.3.75-19.94-.38-33.12-6.4-46.29-23.71-48.17a59.3,59.3,0,0,0-16.56.37c-7.15,10.16-14.3,40.27-14.3,71.88Z"/><path class="eebcb37b-4c40-4ab2-a88e-7759d11145d5" d="M461.23,91.63c46.67,0,67,34.62,65.11,78.28a12.07,12.07,0,0,1-4.14,4.51l-95.59-1.88c1.51,52.31,12.42,76,50.43,76,19.19,0,34.24-3.77,46.29-12.42,1.5-.75,3.76.38,1.88,3.39-14.68,21.07-39.14,36.12-63.23,36.12-51.55,0-85.42-25.59-85.42-90.31C376.56,121.36,417.58,91.63,461.23,91.63Zm19.57,73.76c.75-5.64.75-14.3.75-19.94-.37-33.12-6.39-46.29-23.71-48.17a59.23,59.23,0,0,0-16.55.37c-7.15,10.16-14.3,40.27-14.3,71.88Z"/><path class="eebcb37b-4c40-4ab2-a88e-7759d11145d5" d="M592,369.73l-41.77-.34s-3-91.48-3-146c0-47.41,1.1-123.76,3-124.14,8.65-.75,18.85-2.3,41.81-2.68,1.88,7.15,2.63,15.06,3,29,10.53-8.28,36.12-31.61,58-31.61,37.63,0,59.08,26.34,59.08,79,0,70-35.37,101.6-83.17,101.6-15.8,0-26-2.26-33.49-6C595.05,309.52,593.88,369.73,592,369.73Zm56.48-102c7.53-11.67,13.93-42.52,13.93-83.17,0-48.17-8.28-63.59-32-63.59a100.4,100.4,0,0,0-35.37,6.77c.37,6.4.37,14.3.37,23.71V247.8A40.29,40.29,0,0,0,624,268.13C633.05,269.63,641,269.63,648.48,267.75Z"/></g></g></svg>